<?xml version="1.0"?>
<svg width="300" height="300" xmlns="http://www.w3.org/2000/svg" xmlns:svg="http://www.w3.org/2000/svg" version="1.1">
 <!-- Created with SVG-edit - https://github.com/SVG-Edit/svgedit-->

 <g class="layer">
  <title>Layer 1</title>
  <metadata id="svg_129">image/svg+xmlDes polyedriques2015-05-27Christophe Dang Ngoc Chanpolyhedral dice</metadata>
  <g id="svg_96" stroke="#000000" transform="matrix(3.60601 0 0 3.60601 -284.006 -418.069)">
   <path d="m90.57,155.83l7.14,17.68l15.71,-3.04l16.97,7.86l13.93,-15.71l4.46,-1.08l-5.53,-18.03l-22.15,-24.82l-30.53,37.14z" fill="none" id="svg_103" stroke="#000000" stroke-width="1px"/>
   <path d="m90.57,155.83l5.71,-2.5l13.22,-14.29l18.39,7.15l15.36,-2.68" fill="none" id="svg_102" stroke="#000000" stroke-dasharray="4, 2" stroke-dashoffset="0" stroke-miterlimit="4" stroke-width="0.5"/>
   <path d="m113.42,170.47l7.68,-51.78l23.22,43.93" fill="none" id="svg_101" stroke="#000000" stroke-width="1px"/>
   <path d="m97.71,173.51l23.39,23.93l27.68,-35.9" fill="none" id="svg_100" stroke="#000000" stroke-width="1px"/>
   <path d="m121.1,197.44l9.29,-19.11" fill="none" id="svg_99" stroke="#000000" stroke-width="1px"/>
   <path d="m109.5,139.04l11.6,-20.35" fill="none" id="svg_98" stroke="#000000" stroke-dasharray="4, 2" stroke-dashoffset="0" stroke-miterlimit="4" stroke-width="0.5"/>
   <path d="m96.28,153.33l24.82,44.11l6.79,-51.25" fill="none" id="svg_97" stroke="#000000" stroke-dasharray="4, 2" stroke-dashoffset="0" stroke-miterlimit="4" stroke-width="0.5"/>
  </g>
 </g>
</svg>