<?xml version="1.0"?>
<svg width="300" height="300" xmlns="http://www.w3.org/2000/svg" xmlns:svg="http://www.w3.org/2000/svg" version="1.1">
 <!-- Created with SVG-edit - https://github.com/SVG-Edit/svgedit-->

 <g class="layer">
  <title>Layer 1</title>

  <metadata id="svg_129">image/svg+xmlDes polyedriques2015-05-27Christophe Dang Ngoc Chanpolyhedral dice</metadata>
  <g id="svg_96" stroke="#000000" transform="matrix(2.26645 -1.06845 1.06464 2.25837 -383.657 -148.041)">
   <path d="m83.03,199.74l7.14,17.68l15.71,-3.04l16.97,7.86l13.93,-15.71l4.46,-1.08l-5.53,-18.03l-22.15,-24.82l-30.53,37.14z" fill="none" id="svg_103" stroke="#000000" stroke-width="1px"/>
   <path d="m83.03,199.74l5.71,-2.5l13.22,-14.29l18.39,7.15l15.36,-2.68" fill="none" id="svg_102" stroke="#000000" stroke-dasharray="4, 2" stroke-dashoffset="0" stroke-miterlimit="4" stroke-width="0.5"/>
   <path d="m105.88,214.38l7.68,-51.78l23.22,43.93" fill="none" id="svg_101" stroke="#000000" stroke-width="1px"/>
   <path d="m90.17,217.42l23.39,23.93l27.68,-35.9" fill="none" id="svg_100" stroke="#000000" stroke-width="1px"/>
   <path d="m113.56,241.35l9.29,-19.11" fill="none" id="svg_99" stroke="#000000" stroke-width="1px"/>
   <path d="m101.96,182.95l11.6,-20.35" fill="none" id="svg_98" stroke="#000000" stroke-dasharray="4, 2" stroke-dashoffset="0" stroke-miterlimit="4" stroke-width="0.5"/>
   <path d="m88.74,197.24l24.82,44.11l6.79,-51.25" fill="none" id="svg_97" stroke="#000000" stroke-dasharray="4, 2" stroke-dashoffset="0" stroke-miterlimit="4" stroke-width="0.5"/>
  </g>
  <g id="svg_133" stroke="#000000" transform="matrix(2.47552 0.387544 -0.386162 2.46669 -125.33 -374.411)">
   <path d="m136.74,169.38l7.14,17.68l15.71,-3.04l16.97,7.86l13.93,-15.71l4.46,-1.08l-5.53,-18.03l-22.15,-24.82l-30.53,37.14z" fill="none" id="svg_134" stroke="#000000" stroke-width="1px"/>
   <path d="m136.74,169.38l5.71,-2.5l13.22,-14.29l18.39,7.15l15.36,-2.68" fill="none" id="svg_135" stroke="#000000" stroke-dasharray="4, 2" stroke-dashoffset="0" stroke-miterlimit="4" stroke-width="0.5"/>
   <path d="m159.59,184.02l7.68,-51.78l23.22,43.93" fill="none" id="svg_136" stroke="#000000" stroke-width="1px"/>
   <path d="m143.88,187.06l23.39,23.93l27.68,-35.9" fill="none" id="svg_137" stroke="#000000" stroke-width="1px"/>
   <path d="m167.27,210.99l9.29,-19.11" fill="none" id="svg_138" stroke="#000000" stroke-width="1px"/>
   <path d="m155.67,152.59l11.6,-20.35" fill="none" id="svg_139" stroke="#000000" stroke-dasharray="4, 2" stroke-dashoffset="0" stroke-miterlimit="4" stroke-width="0.5"/>
   <path d="m142.45,166.88l24.82,44.11l6.79,-51.25" fill="none" id="svg_140" stroke="#000000" stroke-dasharray="4, 2" stroke-dashoffset="0" stroke-miterlimit="4" stroke-width="0.5"/>
  </g>
 </g>
</svg>