<?xml version="1.0"?>
<svg width="300" height="300" xmlns="http://www.w3.org/2000/svg" xmlns:svg="http://www.w3.org/2000/svg" version="1.1">
 <!-- Created with SVG-edit - https://github.com/SVG-Edit/svgedit-->

 <g class="layer">
  <title>Layer 1</title>

  <metadata id="svg_129">image/svg+xmlDes polyedriques2015-05-27Christophe Dang Ngoc Chanpolyhedral dice</metadata>
  <g id="svg_82" stroke="#000000" transform="matrix(4.27687 0 0 4.27687 -302.045 -496.012)">
   <path d="m80.98,129.26l15.53,-11.61l29.04,3.41l0.76,13.89l-26.9,4.67l-18.43,-10.36z" fill="none" id="svg_93" stroke="#000000" stroke-width="1px"/>
   <path d="m72.14,146.06l9.21,14.9l17.05,-0.38l19.07,5.05l14.9,-12.88l6.31,-3.16" fill="none" id="svg_92" stroke="#000000" stroke-width="1px"/>
   <path d="m72.14,146.06l22.22,-17.81l21.72,7.45l16.29,-1.13" fill="none" id="svg_91" stroke="#000000" stroke-dasharray="4, 2" stroke-dashoffset="0" stroke-miterlimit="4" stroke-width="0.5"/>
   <path d="m80.98,129.26l-8.84,16.8l7.83,20.83l4.67,12.88l30.43,4.17l15.15,-12l8.46,-22.35l-6.31,-15.02l-6.82,-13.51" fill="none" id="svg_90" stroke="#000000" stroke-width="1px"/>
   <path d="m130.22,171.94l-18.81,-10.35l-31.44,5.3" fill="none" id="svg_89" stroke="#000000" stroke-dasharray="4, 2" stroke-dashoffset="0" stroke-miterlimit="4" stroke-width="0.5"/>
   <path d="m99.41,139.62l-1.01,20.96" fill="none" id="svg_88" stroke="#000000" stroke-width="1px"/>
   <path d="m126.05,134.82l6.32,17.93" fill="none" id="svg_87" stroke="#000000" stroke-width="1px"/>
   <path d="m84.64,179.77l-3.29,-18.81" fill="none" id="svg_86" stroke="#000000" stroke-width="1px"/>
   <path d="m114.94,184.06l2.53,-18.43" fill="none" id="svg_85" stroke="#000000" stroke-width="1px"/>
   <path d="m96.51,117.65l-2.15,10.6" fill="none" id="svg_84" stroke="#000000" stroke-dasharray="4, 2" stroke-dashoffset="0" stroke-miterlimit="4" stroke-width="0.5"/>
   <path d="m116.08,135.7l-4.67,25.89" fill="none" id="svg_83" stroke="#000000" stroke-dasharray="4, 2" stroke-dashoffset="0" stroke-miterlimit="4" stroke-width="0.5"/>
  </g>
 </g>
</svg>