<?xml version="1.0"?>
<svg width="300" height="300" xmlns="http://www.w3.org/2000/svg" xmlns:svg="http://www.w3.org/2000/svg" version="1.1">
 <!-- Created with SVG-edit - https://github.com/SVG-Edit/svgedit-->

 <g class="layer">
  <title>Layer 1</title>

  <metadata id="svg_129">image/svg+xmlDes polyedriques2015-05-27Christophe Dang Ngoc Chanpolyhedral dice</metadata>
  <g id="svg_71" stroke="#000000" transform="matrix(3.83086 0 0 3.83086 -267.467 -485.055)">
   <path d="m108.14,128.9l-33.46,29.42l25.51,17.55l35.86,-7.83l-0.25,-23.74l-27.66,-15.4z" fill="none" id="svg_79" stroke="#000000" stroke-width="1px"/>
   <path d="m100.19,175.87l7.95,-46.97l27.91,39.14" fill="none" id="svg_78" stroke="#000000" stroke-width="1px"/>
   <path d="m74.68,158.32l7.96,28.66l38.63,6.06l22.1,-19.44l-7.57,-29.3" fill="none" id="svg_77" stroke="#000000" stroke-width="1px"/>
   <path d="m82.64,186.98l17.55,-11.11l21.08,17.17l14.78,-25l7.32,5.56" fill="none" id="svg_76" stroke="#000000" stroke-width="1px"/>
   <path d="m82.64,186.98l26.77,15.53l11.86,-9.47" fill="none" id="svg_75" stroke="#000000" stroke-width="1px"/>
   <path d="m82.64,186.98l-2.15,-24.24l37.75,-7.71l17.81,13.01" fill="none" id="svg_74" stroke="#000000" stroke-dasharray="4, 2" stroke-dashoffset="0" stroke-miterlimit="4" stroke-width="0.5"/>
   <path d="m80.49,162.74l16.67,-24.12l21.08,16.41l17.55,-10.73l-38.63,-5.68" fill="none" id="svg_73" stroke="#000000" stroke-dasharray="4, 2" stroke-dashoffset="0" stroke-miterlimit="4" stroke-width="0.5"/>
   <path d="m80.49,162.74l28.91,39.77l8.84,-47.48" fill="none" id="svg_72" stroke="#000000" stroke-dasharray="4, 2" stroke-dashoffset="0" stroke-miterlimit="4" stroke-width="0.5"/>
  </g>
 </g>
</svg>